# xmcd CD database file
#
# Track frame offsets:
#	150
#	24526
#	42018
#	57195
#	75710
#	93945
#	100748
#	113494
#	121365
#	130137
#	138920
#	148274
#	159659
#	169820
#	184539
#	200601
#	213306
#	229180
#	233605
#	244776
#	255751
#	263207
#	279934
#	295423
#	307534
#	320042
#
# Disc length: 4335 seconds
#
# Revision: 0
# Processed by: cddbd v1.5.2PL0 Copyright (c) Steve Scherf et al.
# Submitted via: CDex 1.50
#
DISCID=6010ed1a
DTITLE=Grossman, Stefan - Complete Country Blues Guitar Book [CD2]
DYEAR=1992
DGENRE=Blues
TTITLE0=Yonder Comes The Blues
TTITLE1=Moon Goin' Down
TTITLE2=Belzona Blues
TTITLE3=Special Rider Blues
TTITLE4=Hard Time Killin' Floor
TTITLE5=Buck Dancer's Choice
TTITLE6=Bill Bailey
TTITLE7=Ton Of Blues
TTITLE8=Blake's Breakdown
TTITLE9=Franklin Blues
TTITLE10=Sister Kate
TTITLE11=Struttin' Rag
TTITLE12=Twelve Sticks
TTITLE13=Man Of My Own
TTITLE14=Strange City Streets
TTITLE15=Come Back Baby
TTITLE16=Morning Blues
TTITLE17=Charley James
TTITLE18=County Line
TTITLE19=Tickle Dew
TTITLE20=Banty Rooster
TTITLE21=One Kind Favor
TTITLE22=Someday Baby
TTITLE23=Wake Up Mama
TTITLE24=Goodmorning Little Schoolgirl
TTITLE25=Dog Moves On the Water
EXTD=YEAR: 1992
EXTT0=
EXTT1=
EXTT2=
EXTT3=
EXTT4=
EXTT5=
EXTT6=
EXTT7=
EXTT8=
EXTT9=
EXTT10=
EXTT11=
EXTT12=
EXTT13=
EXTT14=
EXTT15=
EXTT16=
EXTT17=
EXTT18=
EXTT19=
EXTT20=
EXTT21=
EXTT22=
EXTT23=
EXTT24=
EXTT25=
PLAYORDER=
